<svg width="24" height="24" viewBox="0 0 24 24" fill="none" xmlns="http://www.w3.org/2000/svg">
<path fill-rule="evenodd" clip-rule="evenodd" d="M12 22C12.5606 22 13.0955 21.7647 13.4743 21.3514L13.4773 21.3482L13.4823 21.3427L13.4982 21.3252L13.5526 21.2647C13.5986 21.2133 13.6637 21.1398 13.7452 21.0461C13.9081 20.8589 14.137 20.5903 14.41 20.2553C14.9541 19.5873 15.6824 18.6441 16.4143 17.5456C17.1429 16.4522 17.8985 15.1704 18.4773 13.8275C19.0483 12.5026 19.5 10.9984 19.5 9.49242C19.5 5.35187 16.1395 2 12 2C7.86046 2 4.5 5.35187 4.5 9.49242C4.5 10.9984 4.95169 12.5026 5.5227 13.8275C6.10151 15.1704 6.85705 16.4522 7.58566 17.5456C8.31764 18.6441 9.04587 19.5873 9.59004 20.2553C9.86301 20.5903 10.0919 20.8589 10.2548 21.0461C10.3363 21.1398 10.4014 21.2133 10.4474 21.2647L10.5018 21.3252L10.5177 21.3427L10.5227 21.3482L10.5257 21.3514C10.9045 21.7647 11.4394 22 12 22ZM12 12C13.3807 12 14.5 10.8807 14.5 9.5C14.5 8.11929 13.3807 7 12 7C10.6193 7 9.5 8.11929 9.5 9.5C9.5 10.8807 10.6193 12 12 12Z" fill="#191919"/>
</svg>
