<svg width="24" height="24" viewBox="0 0 24 24" fill="none" xmlns="http://www.w3.org/2000/svg">
<path fill-rule="evenodd" clip-rule="evenodd" d="M16.5 7.5C16.5 9.98528 14.4853 12 12 12C9.51471 12 7.5 9.98528 7.5 7.5C7.5 5.01472 9.51471 3 12 3C14.4853 3 16.5 5.01472 16.5 7.5Z" fill="#191919"/>
<path d="M19.5 18.5C19.5 19.3284 18.8284 20 18 20H6C5.17157 20 4.5 19.3284 4.5 18.5C4.5 18.5 4.5 18.0634 4.63854 17.5112C4.77707 16.959 5.03025 16.293 5.55 15.6C6.64143 14.1448 8.63401 13 12 13C15.366 13 17.3586 14.1448 18.45 15.6C18.9697 16.293 19.2229 16.9677 19.3615 17.5112C19.5 18.0547 19.5 18.5 19.5 18.5Z" fill="#191919"/>
</svg>
